<svg width="46" height="40" viewBox="0 0 46 40" fill="none" xmlns="http://www.w3.org/2000/svg">
<mask id="mask0_152_44816" style="mask-type:alpha" maskUnits="userSpaceOnUse" x="5" y="3" width="36" height="34">
<path fill-rule="evenodd" clip-rule="evenodd" d="M28.405 6.66671H36.4167C38.525 6.66671 40.25 8.16671 40.25 10V33.3334C40.25 35.1667 38.525 36.6667 36.4167 36.6667H9.58333C7.475 36.6667 5.75 35.1667 5.75 33.3334V10C5.75 8.16671 7.475 6.66671 9.58333 6.66671H17.595C18.4 4.73337 20.5083 3.33337 23 3.33337C25.4917 3.33337 27.6 4.73337 28.405 6.66671ZM24.9167 8.33337C24.9167 7.41671 24.0542 6.66671 23 6.66671C21.9458 6.66671 21.0833 7.41671 21.0833 8.33337C21.0833 9.25004 21.9458 10 23 10C24.0542 10 24.9167 9.25004 24.9167 8.33337ZM23 13.3334C26.1817 13.3334 28.75 15.5667 28.75 18.3334C28.75 21.1 26.1817 23.3334 23 23.3334C19.8183 23.3334 17.25 21.1 17.25 18.3334C17.25 15.5667 19.8183 13.3334 23 13.3334ZM11.5 31V33.3334H34.5V31C34.5 27.6667 26.8333 25.8334 23 25.8334C19.1667 25.8334 11.5 27.6667 11.5 31Z" fill="black"/>
</mask>
<g mask="url(#mask0_152_44816)">
<rect width="46" height="40" fill="white"/>
</g>
</svg>
