<svg width="38" height="31" viewBox="0 0 38 31" fill="none" xmlns="http://www.w3.org/2000/svg">
<path d="M1 10.0625C1 8.06047 2.79086 6.4375 5 6.4375H6.85926C8.19668 6.4375 9.4456 5.83176 10.1875 4.82329L11.8125 2.61421C12.5544 1.60574 13.8033 1 15.1407 1H22.8593C24.1967 1 25.4456 1.60574 26.1875 2.61421L27.8125 4.82329C28.5544 5.83176 29.8033 6.4375 31.1407 6.4375H33C35.2091 6.4375 37 8.06047 37 10.0625V26.375C37 28.377 35.2091 30 33 30H5C2.79086 30 1 28.377 1 26.375V10.0625Z" fill="white"/>
<path d="M25 17.3125C25 20.3155 22.3137 22.75 19 22.75C15.6863 22.75 13 20.3155 13 17.3125C13 14.3095 15.6863 11.875 19 11.875C22.3137 11.875 25 14.3095 25 17.3125Z" fill="white"/>
<path d="M1 10.0625C1 8.06047 2.79086 6.4375 5 6.4375H6.85926C8.19668 6.4375 9.4456 5.83176 10.1875 4.82329L11.8125 2.61421C12.5544 1.60574 13.8033 1 15.1407 1H22.8593C24.1967 1 25.4456 1.60574 26.1875 2.61421L27.8125 4.82329C28.5544 5.83176 29.8033 6.4375 31.1407 6.4375H33C35.2091 6.4375 37 8.06047 37 10.0625V26.375C37 28.377 35.2091 30 33 30H5C2.79086 30 1 28.377 1 26.375V10.0625Z" stroke="#111B29" stroke-width="2" stroke-linecap="round" stroke-linejoin="round"/>
<path d="M25 17.3125C25 20.3155 22.3137 22.75 19 22.75C15.6863 22.75 13 20.3155 13 17.3125C13 14.3095 15.6863 11.875 19 11.875C22.3137 11.875 25 14.3095 25 17.3125Z" stroke="#111B29" stroke-width="2" stroke-linecap="round" stroke-linejoin="round"/>
</svg>
