<svg width="15" height="12" viewBox="0 0 15 12" fill="none" xmlns="http://www.w3.org/2000/svg">
<path d="M12.512 0.887081C12.7497 0.660759 13.0661 0.535639 13.3943 0.538122C13.7225 0.540606 14.0369 0.670499 14.2712 0.900392C14.5055 1.13029 14.6413 1.4422 14.65 1.77031C14.6586 2.09843 14.5395 2.41708 14.3177 2.65903L7.58429 11.08C7.46851 11.2047 7.32877 11.3048 7.17342 11.3743C7.01808 11.4437 6.85032 11.4812 6.68018 11.4843C6.51004 11.4875 6.34101 11.4563 6.1832 11.3926C6.02538 11.3289 5.88203 11.2341 5.76171 11.1138L1.29639 6.64846C1.17204 6.53258 1.0723 6.39285 1.00312 6.2376C0.933948 6.08234 0.89675 5.91474 0.893752 5.7448C0.890753 5.57486 0.922015 5.40605 0.985672 5.24845C1.04933 5.09085 1.14408 4.94769 1.26426 4.8275C1.38445 4.70731 1.52761 4.61257 1.68521 4.54891C1.84281 4.48525 2.01162 4.45399 2.18156 4.45699C2.35151 4.45999 2.51911 4.49718 2.67436 4.56636C2.82962 4.63554 2.96935 4.73528 3.08522 4.85963L6.619 8.39172L12.4799 0.924208C12.4905 0.911215 12.5018 0.89882 12.5137 0.887081H12.512Z" fill="white"/>
</svg>
