<svg width="39" height="37" viewBox="0 0 39 37" fill="none" xmlns="http://www.w3.org/2000/svg">
<path d="M19.5325 4.48621C14.1537 4.48621 9.78249 8.63329 9.78249 13.7362L9.78249 18.1916C9.78249 19.132 9.35999 20.5658 8.85624 21.3675L6.98749 24.312C5.83374 26.1312 6.62999 28.1508 8.74249 28.8291C15.7462 31.0491 23.3025 31.0491 30.3062 28.8291C32.2725 28.2125 33.1337 26.0079 32.0612 24.312L30.1925 21.3675C29.705 20.5658 29.2825 19.132 29.2825 18.1916L29.2825 13.7362C29.2825 8.64871 24.895 4.48621 19.5325 4.48621Z" fill="#3D5278" stroke="white" stroke-width="1.5" stroke-miterlimit="10" stroke-linecap="round"/>
<path d="M22.5387 4.93334C22.035 4.79459 21.515 4.68668 20.9787 4.62501C19.4187 4.44001 17.9237 4.54793 16.5262 4.93334C16.9975 3.79251 18.1675 2.99084 19.5325 2.99084C20.8975 2.99084 22.0675 3.79251 22.5387 4.93334Z" fill="#3D5278" stroke="white" stroke-width="0.5" stroke-miterlimit="10" stroke-linecap="round" stroke-linejoin="round"/>
<path d="M24.4075 29.3842C24.4075 31.9279 22.2138 34.0092 19.5325 34.0092C18.2 34.0092 16.965 33.485 16.0875 32.6525C15.21 31.82 14.6575 30.6483 14.6575 29.3842" fill="#3D5278"/>
<path d="M24.4075 29.3842C24.4075 31.9279 22.2138 34.0092 19.5325 34.0092C18.2 34.0092 16.965 33.485 16.0875 32.6525C15.21 31.82 14.6575 30.6483 14.6575 29.3842" stroke="white" stroke-width="1.5" stroke-miterlimit="10" stroke-linecap="round"/>
</svg>
