<svg width="17" height="21" viewBox="0 0 17 21" fill="none" xmlns="http://www.w3.org/2000/svg">
<mask id="mask0_454_16619" style="mask-type:alpha" maskUnits="userSpaceOnUse" x="1" y="3" width="14" height="15">
<path fill-rule="evenodd" clip-rule="evenodd" d="M8.29948 3.88379C4.61948 3.88379 1.63281 6.87046 1.63281 10.5505C1.63281 14.2305 4.61948 17.2171 8.29948 17.2171C11.9795 17.2171 14.9661 14.2305 14.9661 10.5505C14.9661 6.87046 11.9795 3.88379 8.29948 3.88379ZM8.29948 11.2171C7.93281 11.2171 7.63281 10.9171 7.63281 10.5505V7.88379C7.63281 7.51712 7.93281 7.21712 8.29948 7.21712C8.66615 7.21712 8.96615 7.51712 8.96615 7.88379V10.5505C8.96615 10.9171 8.66615 11.2171 8.29948 11.2171ZM7.63281 12.5505V13.8838H8.96615V12.5505H7.63281Z" fill="black"/>
</mask>
<g mask="url(#mask0_454_16619)">
<rect x="0.298828" y="2.55078" width="16" height="16" fill="#DA1414"/>
</g>
</svg>
