<svg width="33" height="35" viewBox="0 0 33 35" fill="none" xmlns="http://www.w3.org/2000/svg">
<path d="M26.1477 17.8977C26.1477 15.9218 27.6496 14.3182 29.5 14.3182V12.8864C29.5 7.15911 28.1591 5.72729 22.7955 5.72729H9.38637C4.02273 5.72729 2.68182 7.15911 2.68182 12.8864V13.6023C4.53228 13.6023 6.0341 15.2059 6.0341 17.1818C6.0341 19.1578 4.53228 20.7614 2.68182 20.7614V21.4773C2.68182 27.2046 4.02273 28.6364 9.38637 28.6364H22.7955C28.1591 28.6364 29.5 27.2046 29.5 21.4773C27.6496 21.4773 26.1477 19.8737 26.1477 17.8977Z" fill="#3D5278" stroke="white" stroke-width="1.5" stroke-linecap="round" stroke-linejoin="round"/>
<path d="M13.4091 5.72729L13.4091 28.6364" stroke="white" stroke-width="1.5" stroke-linecap="round" stroke-linejoin="round" stroke-dasharray="5 5"/>
</svg>
